<svg width="120" height="120" viewBox="0 0 120 120" fill="none" xmlns="http://www.w3.org/2000/svg">
<g clip-path="url(#clip0)">
<path d="M44.9212 12.99V100.725L64.4924 107.029V33.4387C64.4924 29.9775 66.0187 27.675 68.4787 28.4737C71.6437 29.3925 72.2699 32.5575 72.2699 36.015V65.3887C84.4799 71.3475 94.0837 65.37 94.0837 49.6275C94.0837 33.4387 88.4587 26.2462 71.8987 20.4862C65.3549 18.2362 53.2424 14.5462 44.9437 12.9862L44.9212 12.99ZM68.2049 94.2L99.6899 82.8112C103.26 81.525 103.811 79.6912 100.92 78.7312C97.9912 77.775 92.7337 78.0262 89.1187 79.335L68.1037 86.835V74.8987L69.2924 74.49C69.2924 74.49 75.3074 72.3862 83.8612 71.4037C92.34 70.5075 102.791 71.5575 111.052 74.7037C120.292 77.715 121.267 82.0687 118.924 85.08C116.599 88.065 110.82 90.255 110.82 90.255L68.1037 105.78V94.2937L68.2049 94.2ZM9.04494 93.0112C-0.468806 90.2775 -2.02881 84.6712 2.28369 81.3862C6.28869 78.4762 13.0649 76.1362 13.0649 76.1362L41.1487 66.075V77.6362L21.0337 85.0012C17.4974 86.3512 16.9124 88.1662 19.8449 89.1225C22.7737 90.1012 28.0237 89.8875 31.5449 88.5375L41.2312 85.0012V95.37C40.6462 95.5087 39.9599 95.5837 39.2774 95.7412C29.5912 97.3875 19.3162 96.72 9.10119 93.3412L9.04494 93.0112Z" fill="black"/>
</g>
<defs>
<clipPath id="clip0">
<rect width="120" height="120" fill="white"/>
</clipPath>
</defs>
</svg>
