<svg width="120" height="138" viewBox="0 0 120 138" fill="none" xmlns="http://www.w3.org/2000/svg">
<path d="M105.938 47.5446C105.938 56.5982 98.5714 63.8839 89.5982 63.8839C80.5446 63.8839 73.2589 56.5714 73.2589 47.5446C73.2589 38.5178 80.5714 31.2053 89.5982 31.2053C98.5714 31.2053 105.938 38.491 105.938 47.5446ZM120 47.5982C120 64.4732 106.339 78.0803 89.5446 78.0803L60.2679 99.4553C59.1964 110.973 49.4196 120.027 37.6339 120.027C26.7857 120.027 17.625 112.312 15.4018 102.08L0 95.8928V67.1517L26.0357 77.6785C30.0804 75.2142 34.6607 74.116 39.9643 74.5982L58.9821 47.3571C59.1161 30.6696 72.7768 17.1428 89.5179 17.1428C106.339 17.1428 120 30.8035 120 47.5982ZM54.375 97.2321C54.375 87.9375 46.9286 80.491 37.6339 80.491C36.4286 80.491 35.2232 80.625 34.0179 80.8928L40.9821 83.7053C47.8125 86.4375 51.1607 94.1517 48.4018 100.982C45.6696 107.812 37.9018 111.161 31.0714 108.348C28.3393 107.277 25.5804 106.125 22.8482 105.08C25.6607 110.357 31.2054 113.973 37.6339 113.973C46.9286 113.973 54.375 106.527 54.375 97.2321ZM109.955 47.5982C109.955 36.3482 100.768 27.1875 89.5446 27.1875C78.2143 27.1875 69.0536 36.3482 69.0536 47.5982C69.0536 58.9017 78.2411 68.0089 89.5446 68.0089C100.768 68.0357 109.955 58.9285 109.955 47.5982Z" fill="black"/>
</svg>
